<mxfile host="app.diagrams.net" modified="2021-04-20T04:15:29.179Z" agent="5.0 (Windows NT 10.0; Win64; x64) AppleWebKit/537.36 (KHTML, like Gecko) Chrome/88.0.4324.182 Safari/537.36" etag="9A8wP4VRjxRcjTPcwy0d" version="14.6.1" type="github">
  <diagram id="lBrn-12LnoMCUyOBAwMA" name="Page-1">
    <mxGraphModel dx="868" dy="484" grid="1" gridSize="10" guides="1" tooltips="1" connect="1" arrows="1" fold="1" page="1" pageScale="1" pageWidth="827" pageHeight="1169" math="0" shadow="0">
      <root>
        <mxCell id="0" />
        <mxCell id="1" parent="0" />
        <mxCell id="aZPBgyURXHmDaD6H_Ups-1" value="" style="rounded=1;whiteSpace=wrap;html=1;strokeWidth=2;fillWeight=4;hachureGap=8;hachureAngle=45;fillColor=#1ba1e2;sketch=1;" parent="1" vertex="1">
          <mxGeometry x="140" y="40" width="560" height="325" as="geometry" />
        </mxCell>
        <mxCell id="aZPBgyURXHmDaD6H_Ups-3" value="http服务器" style="rounded=1;whiteSpace=wrap;html=1;strokeWidth=2;fillWeight=4;hachureGap=8;hachureAngle=45;sketch=1;" parent="1" vertex="1">
          <mxGeometry x="170" y="105" width="120" height="180" as="geometry" />
        </mxCell>
        <mxCell id="aZPBgyURXHmDaD6H_Ups-4" value="" style="rounded=1;whiteSpace=wrap;html=1;strokeWidth=2;fillWeight=4;hachureGap=8;hachureAngle=45;sketch=1;align=left;" parent="1" vertex="1">
          <mxGeometry x="410" y="105" width="260" height="180" as="geometry" />
        </mxCell>
        <mxCell id="aZPBgyURXHmDaD6H_Ups-5" value="" style="ellipse;whiteSpace=wrap;html=1;strokeWidth=2;fillWeight=2;hachureGap=8;fillColor=#990000;fillStyle=dots;sketch=1;" parent="1" vertex="1">
          <mxGeometry x="460" y="162.5" width="150" height="80" as="geometry" />
        </mxCell>
        <mxCell id="aZPBgyURXHmDaD6H_Ups-10" value="Servlet容器" style="text;html=1;strokeColor=none;fillColor=none;align=center;verticalAlign=middle;whiteSpace=wrap;rounded=0;" parent="1" vertex="1">
          <mxGeometry x="440" y="135" width="100" height="20" as="geometry" />
        </mxCell>
        <mxCell id="aZPBgyURXHmDaD6H_Ups-11" value="" style="shape=singleArrow;whiteSpace=wrap;html=1;arrowWidth=0.4;arrowSize=0.4;rounded=1;strokeWidth=2;sketch=1;fillWeight=4;hachureGap=8;hachureAngle=45;" parent="1" vertex="1">
          <mxGeometry x="310" y="165" width="80" height="60" as="geometry" />
        </mxCell>
        <mxCell id="aZPBgyURXHmDaD6H_Ups-14" value="&lt;font style=&quot;font-size: 19px&quot;&gt;Tomcat&lt;/font&gt;" style="text;html=1;strokeColor=none;fillColor=none;align=center;verticalAlign=middle;whiteSpace=wrap;rounded=0;labelBackgroundColor=#ffffff;labelBorderColor=none;" parent="1" vertex="1">
          <mxGeometry x="200" y="65" width="40" height="20" as="geometry" />
        </mxCell>
        <mxCell id="f-Kak306lGFMM3QOc9zU-2" value="by lizequn" style="text;html=1;strokeColor=none;fillColor=none;align=center;verticalAlign=middle;whiteSpace=wrap;rounded=0;labelBackgroundColor=#ffffff;fontColor=#808080;" vertex="1" parent="1">
          <mxGeometry x="635" y="385" width="75" height="20" as="geometry" />
        </mxCell>
        <mxCell id="f-Kak306lGFMM3QOc9zU-4" value="" style="rounded=1;whiteSpace=wrap;html=1;strokeWidth=2;fillWeight=4;hachureGap=8;hachureAngle=45;sketch=1;labelBackgroundColor=#ffffff;align=left;" vertex="1" parent="1">
          <mxGeometry x="20" y="630" width="770" height="400" as="geometry" />
        </mxCell>
        <mxCell id="f-Kak306lGFMM3QOc9zU-5" value="Catalina" style="text;html=1;strokeColor=none;fillColor=none;align=center;verticalAlign=middle;whiteSpace=wrap;rounded=0;labelBackgroundColor=none;labelBorderColor=none;fontStyle=1" vertex="1" parent="1">
          <mxGeometry x="70" y="630" width="40" height="20" as="geometry" />
        </mxCell>
        <mxCell id="f-Kak306lGFMM3QOc9zU-6" value="" style="rounded=1;whiteSpace=wrap;html=1;labelBackgroundColor=none;fontColor=#ffffff;align=left;fillColor=#6d8764;strokeColor=#3A5431;" vertex="1" parent="1">
          <mxGeometry x="40" y="650" width="730" height="360" as="geometry" />
        </mxCell>
        <mxCell id="f-Kak306lGFMM3QOc9zU-7" value="Server" style="text;html=1;strokeColor=none;fillColor=none;align=center;verticalAlign=middle;whiteSpace=wrap;rounded=0;labelBackgroundColor=none;fontColor=#000000;fontStyle=1" vertex="1" parent="1">
          <mxGeometry x="90" y="650" width="40" height="20" as="geometry" />
        </mxCell>
        <mxCell id="f-Kak306lGFMM3QOc9zU-8" value="" style="rounded=0;whiteSpace=wrap;html=1;labelBackgroundColor=none;align=left;fillColor=#b1ddf0;strokeColor=#10739e;" vertex="1" parent="1">
          <mxGeometry x="70" y="670" width="660" height="300" as="geometry" />
        </mxCell>
        <mxCell id="f-Kak306lGFMM3QOc9zU-10" value="" style="rounded=0;whiteSpace=wrap;html=1;labelBackgroundColor=none;align=left;fillColor=#b1ddf0;strokeColor=#10739e;" vertex="1" parent="1">
          <mxGeometry x="84" y="680" width="660" height="300" as="geometry" />
        </mxCell>
        <mxCell id="f-Kak306lGFMM3QOc9zU-11" value="" style="rounded=0;whiteSpace=wrap;html=1;labelBackgroundColor=none;align=left;fillColor=#b1ddf0;strokeColor=#10739e;" vertex="1" parent="1">
          <mxGeometry x="100" y="690" width="660" height="300" as="geometry" />
        </mxCell>
        <mxCell id="f-Kak306lGFMM3QOc9zU-12" value="" style="rounded=0;whiteSpace=wrap;html=1;labelBackgroundColor=none;align=left;fillColor=#b1ddf0;strokeColor=#10739e;" vertex="1" parent="1">
          <mxGeometry x="120" y="700" width="660" height="300" as="geometry" />
        </mxCell>
        <mxCell id="f-Kak306lGFMM3QOc9zU-13" value="&lt;b&gt;service&lt;/b&gt;" style="text;html=1;strokeColor=none;fillColor=none;align=center;verticalAlign=middle;whiteSpace=wrap;rounded=0;labelBackgroundColor=none;fontColor=#000000;" vertex="1" parent="1">
          <mxGeometry x="130" y="710" width="40" height="20" as="geometry" />
        </mxCell>
        <mxCell id="f-Kak306lGFMM3QOc9zU-14" value="&lt;span style=&quot;background-color: rgb(255 , 255 , 255)&quot;&gt;connector&lt;/span&gt;" style="rounded=1;whiteSpace=wrap;html=1;strokeWidth=2;fillWeight=4;hachureGap=8;hachureAngle=45;fillColor=#1ba1e2;sketch=1;labelBackgroundColor=none;fontColor=#000000;align=center;" vertex="1" parent="1">
          <mxGeometry x="150" y="740" width="80" height="50" as="geometry" />
        </mxCell>
        <mxCell id="f-Kak306lGFMM3QOc9zU-15" value="&lt;span style=&quot;background-color: rgb(255 , 255 , 255)&quot;&gt;connector&lt;/span&gt;" style="rounded=1;whiteSpace=wrap;html=1;strokeWidth=2;fillWeight=4;hachureGap=8;hachureAngle=45;fillColor=#1ba1e2;sketch=1;labelBackgroundColor=none;fontColor=#000000;align=center;" vertex="1" parent="1">
          <mxGeometry x="150" y="805" width="80" height="50" as="geometry" />
        </mxCell>
        <mxCell id="f-Kak306lGFMM3QOc9zU-16" value="&lt;span style=&quot;background-color: rgb(255 , 255 , 255)&quot;&gt;connector&lt;/span&gt;" style="rounded=1;whiteSpace=wrap;html=1;strokeWidth=2;fillWeight=4;hachureGap=8;hachureAngle=45;fillColor=#1ba1e2;sketch=1;labelBackgroundColor=none;fontColor=#000000;align=center;" vertex="1" parent="1">
          <mxGeometry x="150" y="880" width="80" height="50" as="geometry" />
        </mxCell>
        <mxCell id="f-Kak306lGFMM3QOc9zU-17" value="" style="rounded=1;whiteSpace=wrap;html=1;strokeWidth=2;fillWeight=4;hachureGap=8;hachureAngle=45;fillColor=#d0cee2;sketch=1;labelBackgroundColor=none;align=left;strokeColor=#56517e;" vertex="1" parent="1">
          <mxGeometry x="290" y="713.75" width="470" height="252.5" as="geometry" />
        </mxCell>
        <mxCell id="f-Kak306lGFMM3QOc9zU-19" value="&lt;b&gt;Container实例&lt;/b&gt;" style="text;html=1;strokeColor=none;fillColor=none;align=center;verticalAlign=middle;whiteSpace=wrap;rounded=0;labelBackgroundColor=none;fontColor=#000000;" vertex="1" parent="1">
          <mxGeometry x="320" y="720" width="100" height="20" as="geometry" />
        </mxCell>
        <mxCell id="f-Kak306lGFMM3QOc9zU-20" value="&lt;b&gt;Engine引擎&lt;/b&gt;" style="text;html=1;strokeColor=none;fillColor=none;align=center;verticalAlign=middle;whiteSpace=wrap;rounded=0;labelBackgroundColor=none;fontColor=#000000;" vertex="1" parent="1">
          <mxGeometry x="472.5" y="730" width="105" height="20" as="geometry" />
        </mxCell>
        <mxCell id="f-Kak306lGFMM3QOc9zU-21" value="" style="rounded=0;whiteSpace=wrap;html=1;labelBackgroundColor=none;fontColor=#ffffff;align=left;fillColor=#60a917;strokeColor=#2D7600;" vertex="1" parent="1">
          <mxGeometry x="320" y="755" width="390" height="170" as="geometry" />
        </mxCell>
        <mxCell id="f-Kak306lGFMM3QOc9zU-22" value="" style="rounded=0;whiteSpace=wrap;html=1;labelBackgroundColor=none;fontColor=#ffffff;align=left;fillColor=#60a917;strokeColor=#2D7600;" vertex="1" parent="1">
          <mxGeometry x="330" y="765" width="390" height="170" as="geometry" />
        </mxCell>
        <mxCell id="f-Kak306lGFMM3QOc9zU-23" value="" style="rounded=0;whiteSpace=wrap;html=1;labelBackgroundColor=none;fontColor=#ffffff;align=left;fillColor=#60a917;strokeColor=#2D7600;" vertex="1" parent="1">
          <mxGeometry x="340" y="775" width="400" height="175" as="geometry" />
        </mxCell>
        <mxCell id="f-Kak306lGFMM3QOc9zU-24" value="&lt;b&gt;host虚拟主机&lt;/b&gt;" style="text;html=1;strokeColor=none;fillColor=none;align=center;verticalAlign=middle;whiteSpace=wrap;rounded=0;labelBackgroundColor=none;fontColor=#000000;" vertex="1" parent="1">
          <mxGeometry x="447.5" y="775" width="155" height="20" as="geometry" />
        </mxCell>
        <mxCell id="f-Kak306lGFMM3QOc9zU-25" value="" style="rounded=1;whiteSpace=wrap;html=1;strokeWidth=2;fillWeight=4;hachureGap=8;hachureAngle=45;fillColor=#1ba1e2;sketch=1;labelBackgroundColor=none;fontColor=#000000;align=left;" vertex="1" parent="1">
          <mxGeometry x="360" y="805" width="160" height="110" as="geometry" />
        </mxCell>
        <mxCell id="f-Kak306lGFMM3QOc9zU-26" value="&lt;span style=&quot;background-color: rgb(255 , 255 , 255)&quot;&gt;&lt;font style=&quot;font-size: 14px&quot;&gt;Context&lt;/font&gt;&lt;/span&gt;" style="text;html=1;strokeColor=none;fillColor=none;align=center;verticalAlign=middle;whiteSpace=wrap;rounded=0;labelBackgroundColor=none;fontColor=#000000;" vertex="1" parent="1">
          <mxGeometry x="420" y="807.5" width="40" height="20" as="geometry" />
        </mxCell>
        <mxCell id="f-Kak306lGFMM3QOc9zU-28" value="Wrapper" style="rounded=1;whiteSpace=wrap;html=1;strokeWidth=2;fillWeight=4;hachureGap=8;hachureAngle=45;fillColor=#d0cee2;sketch=1;labelBackgroundColor=none;align=center;strokeColor=#56517e;" vertex="1" parent="1">
          <mxGeometry x="395" y="850" width="90" height="50" as="geometry" />
        </mxCell>
        <mxCell id="f-Kak306lGFMM3QOc9zU-29" value="" style="rounded=1;whiteSpace=wrap;html=1;strokeWidth=2;fillWeight=4;hachureGap=8;hachureAngle=45;fillColor=#1ba1e2;sketch=1;labelBackgroundColor=none;fontColor=#000000;align=left;" vertex="1" parent="1">
          <mxGeometry x="540" y="805" width="160" height="110" as="geometry" />
        </mxCell>
        <mxCell id="f-Kak306lGFMM3QOc9zU-30" value="Wrapper" style="rounded=1;whiteSpace=wrap;html=1;strokeWidth=2;fillWeight=4;hachureGap=8;hachureAngle=45;fillColor=#d0cee2;sketch=1;labelBackgroundColor=none;align=center;strokeColor=#56517e;" vertex="1" parent="1">
          <mxGeometry x="575" y="847.5" width="90" height="50" as="geometry" />
        </mxCell>
        <mxCell id="f-Kak306lGFMM3QOc9zU-31" value="&lt;span style=&quot;background-color: rgb(255 , 255 , 255)&quot;&gt;&lt;font style=&quot;font-size: 14px&quot;&gt;Context&lt;/font&gt;&lt;/span&gt;" style="text;html=1;strokeColor=none;fillColor=none;align=center;verticalAlign=middle;whiteSpace=wrap;rounded=0;labelBackgroundColor=none;fontColor=#000000;" vertex="1" parent="1">
          <mxGeometry x="595" y="810" width="40" height="20" as="geometry" />
        </mxCell>
        <mxCell id="f-Kak306lGFMM3QOc9zU-34" value="by lizequn" style="text;html=1;strokeColor=none;fillColor=none;align=center;verticalAlign=middle;whiteSpace=wrap;rounded=0;labelBackgroundColor=#ffffff;fontColor=#808080;" vertex="1" parent="1">
          <mxGeometry x="602.5" y="1050" width="75" height="20" as="geometry" />
        </mxCell>
      </root>
    </mxGraphModel>
  </diagram>
</mxfile>
